PathFileType	4	(X/Y/Z)	C:\My Captures\DataSMARTClinic\0056~004 ID\0056~aa~STRATO3\Standing_ID_04_STRATO.trc
DataRate	CameraRate	NumFrames	NumMarkers	Units	OrigDataRate	OrigDataStartFrame	OrigNumFrames
250.00	250.00	10	22	mm	250.00	1618	2621
Frame#	Time	r.should			l.should			c7			r.asis			l.asis			sacrum			r.bar1			l.bar1			r.knee1			l.knee1			r.bar2			r.mall			l.bar2			l.mall			r.met			r.heel			l.heel			l.met			r.mallm			l.mallm			r.kneem			l.kneem			
		X1	Y1	Z1	X2	Y2	Z2	X3	Y3	Z3	X4	Y4	Z4	X5	Y5	Z5	X6	Y6	Z6	X7	Y7	Z7	X8	Y8	Z8	X9	Y9	Z9	X10	Y10	Z10	X11	Y11	Z11	X12	Y12	Z12	X13	Y13	Z13	X14	Y14	Z14	X15	Y15	Z15	X16	Y16	Z16	X17	Y17	Z17	X18	Y18	Z18	X19	Y19	Z19	X20	Y20	Z20	X21	Y21	Z21	X22	Y22	Z22	

1617	6.468000	874.337852	1252.224922	360.511959	861.692786	1257.761240	78.139089	782.073796	1314.081907	218.017980	978.211880	881.389737	342.606008	981.468201	874.256253	103.006206	736.436129	907.369435	207.939029	870.236337	801.721513	427.192807	888.322353	771.279693	24.799984	903.570592	463.562727	409.534067	885.321796	471.777201	78.818016	881.026030	402.204692	416.600108	830.080092	71.122132	438.012749	867.957056	397.819400	78.405827	853.778601	72.062202	91.621622	969.483733	43.483201	433.937043	777.990520	53.765096	390.633434	796.841800	58.209173	127.574697	985.269248	43.861698	114.780873	857.944608	69.393106	361.568540	866.557062	72.778322	168.980211	898.264647	447.652757	261.779428	857.640564	447.432190	221.946895	
1618	6.472000	874.348879	1252.230287	360.500246	861.701310	1257.756948	78.131512	782.091975	1314.070702	218.012407	978.216529	881.393909	342.598319	981.457829	874.254525	103.002653	736.428201	907.369852	207.931831	870.245636	801.726699	427.174628	888.328254	771.275878	24.792850	903.578997	463.572949	409.538478	885.325193	471.776992	78.812078	881.025076	402.203381	416.598499	830.074668	71.122944	438.010126	867.953360	397.817671	78.396916	854.058921	72.005935	91.737926	969.480991	43.483142	433.936417	777.998507	53.791706	390.627444	796.996117	57.321906	126.491547	985.266507	43.861620	114.776850	857.932806	69.373637	361.570597	866.557300	72.780550	168.970019	898.279846	447.640687	261.761129	857.635975	447.426498	221.937984	
1619	6.476000	874.365330	1252.236009	360.479802	861.698985	1257.752061	78.127332	782.122910	1314.064145	217.993945	978.214145	881.391346	342.594683	981.469929	874.268532	102.980040	736.413658	907.366335	207.928792	870.258033	801.742792	427.161068	888.353407	771.280468	24.777859	903.580904	463.572472	409.537703	885.319233	471.773624	78.810088	881.022334	402.196348	416.594625	830.070019	71.116433	438.009739	867.956400	397.811562	78.402579	854.454100	71.941130	91.885179	969.465852	43.471251	433.946371	778.003275	53.796802	390.653998	797.167122	56.220192	125.135496	985.270977	43.862328	114.775985	857.943773	69.379918	361.560673	866.563678	72.782040	168.966413	898.275614	447.638720	261.757731	857.627451	447.425395	221.935809	
1620	6.480000	874.361157	1252.234459	360.463589	861.707389	1257.750392	78.116730	782.131433	1314.080715	217.972830	978.209615	881.390691	342.596412	981.494427	874.263644	102.977403	736.423254	907.361090	207.926750	870.266378	801.740706	427.171409	888.352931	771.280706	24.765080	903.587699	463.570982	409.529477	885.335505	471.778005	78.806318	881.017089	402.195275	416.589379	830.078900	71.110561	438.010633	867.956042	397.816032	78.401268	853.961587	72.058275	91.691121	969.476044	43.472599	433.938891	777.991354	53.775616	390.665352	796.926796	57.712950	126.956105	985.265732	43.862645	114.773348	857.964754	69.398105	361.562639	866.567135	72.790876	168.973207	898.258030	447.631031	261.762202	857.627988	447.437763	221.934706	
1621	6.484000	874.355972	1252.240896	360.450983	861.726165	1257.742047	78.107975	782.110274	1314.074636	217.966154	978.212297	881.396294	342.591047	981.488585	874.260306	102.981783	736.413836	907.368660	207.924411	870.231152	801.747441	427.166045	888.355434	771.283031	24.758955	903.593361	463.571846	409.525394	885.343313	471.779168	78.805491	881.016433	402.193457	416.579247	830.087960	71.098492	438.000560	867.949784	397.816658	78.393780	853.821456	72.058901	91.630004	969.473004	43.465748	433.925837	777.976990	53.768847	390.669793	796.868443	58.087818	127.409071	985.254765	43.871611	114.773691	857.951045	69.393128	361.576498	866.571665	72.786689	168.978155	898.268342	447.625339	261.758566	857.649446	447.450608	221.926630	
1622	6.488000	874.378264	1252.238870	360.442072	861.721754	1257.739186	78.098841	782.135725	1314.060211	217.953011	978.205323	881.400228	342.580080	981.486976	874.263167	102.975443	736.407280	907.365799	207.920745	870.222211	801.744282	427.161992	888.343751	771.280646	24.764771	903.595865	463.568926	409.523636	885.346711	471.783638	78.803726	881.017387	402.189910	416.569322	830.082953	71.099006	437.997907	867.952168	397.817224	78.383848	853.765070	72.061568	91.597192	969.467998	43.465272	433.931291	777.963519	53.783461	390.670955	796.843767	58.189366	127.530828	985.267162	43.872163	114.773303	857.945919	69.406264	361.565500	866.576254	72.788313	168.982953	898.301005	447.636664	261.753380	857.651472	447.447419	221.915290	
1623	6.492000	874.355257	1252.220988	360.437274	861.719489	1257.733345	78.093193	782.137692	1314.058304	217.947841	978.197455	881.385207	342.580259	981.486082	874.272108	102.971323	736.408055	907.360852	207.913265	870.256901	801.722765	427.148223	888.362408	771.283269	24.760548	903.580308	463.568568	409.529090	885.353386	471.781790	78.803629	881.024122	402.193129	416.576236	830.078661	71.101382	438.007176	867.948949	397.823900	78.371227	853.760600	72.060227	91.617763	969.485939	43.474346	433.937371	777.989268	53.769246	390.648752	796.855211	58.198635	127.561539	985.276461	43.866068	114.777565	857.917309	69.403768	361.556113	866.589367	72.784722	168.972105	898.299992	447.651535	261.752278	857.632756	447.450578	221.913576	
1624	6.496000	874.347150	1252.212048	360.439539	861.720920	1257.729292	78.087799	782.140493	1314.055443	217.943326	978.199124	881.373882	342.590004	981.482625	874.267995	102.976315	736.424565	907.345176	207.900673	870.222747	801.672935	427.128255	888.369381	771.283269	24.764013	903.583884	463.559031	409.523100	885.349452	471.768796	78.801021	881.034434	402.203530	416.581005	830.074668	71.100995	438.010126	867.956221	397.821665	78.376003	853.776515	72.065353	91.610484	969.486713	43.469884	433.940291	777.984023	53.758662	390.648782	796.862721	58.195423	127.573282	985.277057	43.864645	114.782117	857.914090	69.385327	361.548811	866.601825	72.781280	168.971553	898.291588	447.652757	261.753142	857.642055	447.434753	221.910536	
1625	6.500000	874.359429	1252.210379	360.426307	861.711323	1257.720947	78.078061	782.154679	1314.047575	217.932969	978.197694	881.370783	342.589289	981.490433	874.259591	102.969706	736.422300	907.345533	207.907379	870.207667	801.678538	427.141607	888.358891	771.286845	24.765626	903.586268	463.557988	409.523696	885.354877	471.767336	78.795731	881.030440	402.196974	416.578621	830.080926	71.102701	438.003421	867.979586	397.818506	78.375705	854.042530	71.984068	91.739736	969.484627	43.468602	433.933914	777.988076	53.765304	390.646040	797.001004	57.320703	126.491755	985.280037	43.852668	114.778429	857.934713	69.390506	361.559689	866.589785	72.775304	168.977201	898.271680	447.645098	261.748433	857.658982	447.421283	221.911222	
1626	6.504000	874.370217	1252.198696	360.420793	861.706972	1257.718921	78.076094	782.163322	1314.043045	217.936158	978.182912	881.360948	342.591703	981.479347	874.250472	102.965482	736.422658	907.343149	207.908571	870.196998	801.685810	427.135706	888.354301	771.288812	24.749879	903.584063	463.557124	409.525186	885.365188	471.775413	78.792617	881.031632	402.190745	416.577011	830.091715	71.098126	438.005149	867.986679	397.811592	78.371033	854.680717	71.827814	92.048936	969.497621	43.463554	433.935821	777.970076	53.767927	390.635043	797.330022	55.311091	124.051787	985.273063	43.848142	114.782162	857.934237	69.398932	361.566365	866.592169	72.776869	168.976545	898.278654	447.626531	261.752665	857.645988	447.416782	221.917808	
